Coordinates
version=1
nRows=16
nColumns=42
inDegrees=yes

Units are S.I. units (second, meters, Newtons, ...)
If the header above contains a line with 'inDegrees', this indicates whether rotational values are in degrees (yes) or radians (no).

endheader
time	pelvis_tilt	pelvis_list	pelvis_rotation	pelvis_tx	pelvis_ty	pelvis_tz	hip_flexion_r	hip_adduction_r	hip_rotation_r	knee_angle_r	knee_adduction_r	knee_angle_r_beta	ankle_angle_r	subtalar_angle_r	mtp_angle_r	hip_flexion_l	hip_adduction_l	hip_rotation_l	knee_angle_l	knee_adduction_l	knee_angle_l_beta	ankle_angle_l	subtalar_angle_l	mtp_angle_l	lumbar_extension	lumbar_bending	lumbar_rotation	arm_flex_r	arm_add_r	arm_rot_r	elbow_flex_r	pro_sup_r	wrist_flex_r	wrist_dev_r	arm_flex_l	arm_add_l	arm_rot_l	elbow_flex_l	pro_sup_l	wrist_flex_l	wrist_dev_l
      2.36000000	      7.51061398	      1.04769615	     -0.36064701	      0.16575383	      0.89607061	      0.09447044	     26.46164363	     -4.09350164	     -3.47467804	     56.81576316	      2.09472978	      0.99162213	      7.98667743	     -5.75424796	     -7.50139144	      4.32612935	      1.85881670	    -22.26257558	     34.29300429	     -5.10065506	      0.59852584	     27.66713887	     29.97508384	     -7.50139144	    -20.52886600	      1.93550723	     -5.17847605	     -2.05126964	     -8.77046768	    -16.99929273	     32.26176300	     90.00000001	      0.00000000	      0.00000000	     -3.35471198	     -8.74840578	    -22.36215438	     41.82310632	     90.00000001	      0.00000000	      0.00000000
      2.37000000	      7.56995152	      1.06424141	     -0.08265286	      0.17402434	      0.89574120	      0.09458158	     26.90236798	     -4.44071158	     -5.11509488	     54.20196717	      1.27534347	      0.94600279	     10.16778562	      0.12583894	     -7.50129408	      3.43555555	      1.66187980	    -22.70906100	     33.95200932	     -5.04782420	      0.59257435	     28.38499298	     31.74426833	     -7.50129408	    -20.64219525	      2.04133092	     -5.39394010	     -2.46463680	     -8.38564324	    -19.06004165	     32.46325995	     90.00000001	      0.00000000	      0.00000000	     -3.10868190	     -9.03690112	    -21.68999783	     41.53792958	     90.00000001	      0.00000000	      0.00000000
      2.38000000	      7.46459477	      1.05203004	      0.17980896	      0.18210680	      0.89514996	      0.09483793	     27.45791620	     -4.64507768	     -5.85658944	     51.59344322	      1.14197089	      0.90047546	     10.95273142	      2.85908491	     -7.50118742	      2.76063079	      1.53363587	    -22.61808168	     33.65177084	     -4.88859375	      0.58733420	     28.75827078	     32.17073011	     -7.50118742	    -20.59689238	      2.15730566	     -5.64462481	     -2.78859487	     -8.09086066	    -20.51811840	     32.43229193	     90.00000001	      0.00000000	      0.00000000	     -2.96916787	     -9.19763343	    -21.42808051	     41.52936134	     90.00000001	      0.00000000	      0.00000000
      2.39000000	      7.34093284	      1.03147532	      0.43039147	      0.19023195	      0.89436712	      0.09516053	     27.98081283	     -4.86235313	     -6.57087046	     49.07762686	      1.11287235	      0.85656618	     11.59767088	      5.29499981	     -7.50111070	      2.14102021	      1.37686378	    -22.59699352	     33.42106431	     -4.77428866	      0.58330761	     29.21866200	     32.68027642	     -7.50111070	    -20.52120014	      2.27502475	     -5.86148689	     -3.21563528	     -7.90911117	    -21.41085253	     32.49302553	     90.00000001	      0.00000000	      0.00000000	     -2.76180693	     -9.31409543	    -21.31676980	     41.38085377	     90.00000001	      0.00000000	      0.00000000
      2.40000000	      7.11455312	      1.01875873	      0.65946406	      0.19827788	      0.89333466	      0.09555327	     28.56680325	     -5.04007621	     -6.76888386	     46.69472824	      1.43564838	      0.81497675	     11.66159693	      5.95214877	     -7.50109230	      1.66056015	      1.29430801	    -22.32251890	     33.21135019	     -4.63598469	      0.57964741	     29.42073223	     32.55051509	     -7.50109230	    -20.34603783	      2.37761173	     -6.07414758	     -3.65456368	     -7.86023496	    -21.57375257	     32.50343180	     90.00000001	      0.00000000	      0.00000000	     -2.66883889	     -9.38240831	    -21.27749281	     41.45426595	     90.00000001	      0.00000000	      0.00000000
      2.41000000	      7.07344148	      1.00946693	      0.88891063	      0.20675093	      0.89233813	      0.09600777	     28.92563632	     -5.37096613	     -8.22124169	     44.55959102	      1.09412346	      0.77771158	     12.57833431	      9.89035624	     -7.50102286	      0.92668480	      1.09652774	    -22.42434232	     32.99555948	     -4.52088123	      0.57588115	     30.13452962	     33.49945928	     -7.50102286	    -20.32495850	      2.46286591	     -6.20721757	     -4.09043326	     -7.56408714	    -22.89114393	     32.58129883	     90.00000001	      0.00000000	      0.00000000	     -2.39430978	     -9.44061559	    -21.28620817	     41.05748475	     90.00000001	      0.00000000	      0.00000000
      2.42000000	      6.80992494	      1.02415087	      1.09247754	      0.21495523	      0.89096131	      0.09653690	     29.49213343	     -5.62261381	     -8.55664026	     42.67318074	      1.42790060	      0.74478751	     12.57112345	     10.21902922	     -7.50100889	      0.52896613	      1.08365538	    -22.13145008	     32.84902691	     -4.48366147	      0.57332368	     30.26879509	     33.28008912	     -7.50100889	    -20.08425546	      2.49577318	     -6.36471225	     -4.53353210	     -7.50095929	    -23.01972639	     32.55035657	     90.00000001	      0.00000000	      0.00000000	     -2.32399306	     -9.49169855	    -21.26790745	     41.15407314	     90.00000001	      0.00000000	      0.00000000
      2.43000000	      6.78549661	      0.97999953	      1.29938565	      0.22352172	      0.88976754	      0.09713223	     29.74921004	     -5.90473613	     -9.99153405	     41.06533214	      1.18692969	      0.71672525	     13.02216066	     13.30480816	     -7.50094970	     -0.21155804	      0.85230460	    -22.04220399	     32.67607432	     -4.30619906	      0.57030508	     31.08458361	     33.91604405	     -7.50094970	    -20.07614584	      2.61690569	     -6.47829653	     -4.83047938	     -7.28644855	    -24.34806543	     32.53266922	     90.00000001	      0.00000000	      0.00000000	     -2.01966858	     -9.47772904	    -21.44730174	     40.77124556	     90.00000001	      0.00000000	      0.00000000
      2.44000000	      6.62245847	      0.95532096	      1.43964221	      0.23195428	      0.88834463	      0.09783256	     30.10732509	     -6.12545438	    -10.54736766	     39.73393384	      1.45721395	      0.69348797	     12.97323194	     13.62821895	     -7.50093417	     -0.74296967	      0.77986550	    -21.70870332	     32.53317535	     -4.21989261	      0.56781103	     31.38424897	     33.81072132	     -7.50093417	    -19.93376633	      2.68112374	     -6.53165036	     -5.16630974	     -7.23332591	    -24.56469021	     32.48646990	     90.00000001	      0.00000000	      0.00000000	     -1.95679631	     -9.46157486	    -21.46308898	     40.79880606	     90.00000001	      0.00000000	      0.00000000
      2.45000000	      6.54391005	      0.91491598	      1.60465026	      0.24066232	      0.88684947	      0.09857616	     30.40847850	     -6.42122488	    -12.00123815	     38.88357121	      1.25574827	      0.67864634	     13.12650651	     15.72667779	     -7.50088402	     -1.36758069	      0.63131736	    -21.56091796	     32.43768987	     -4.19185301	      0.56614449	     32.08222260	     34.07408301	     -7.50088402	    -19.84987404	      2.76971401	     -6.57076346	     -5.42830103	     -6.98429211	    -25.82273451	     32.38272281	     90.00000001	      0.00000000	      0.00000000	     -1.72370417	     -9.38077165	    -21.80396327	     40.45460414	     90.00000001	      0.00000000	      0.00000000
      2.46000000	      6.46951841	      0.84534859	      1.72455580	      0.24936123	      0.88536941	      0.09943535	     30.60639286	     -6.58602501	    -12.78186690	     38.25342298	      1.36860422	      0.66764818	     13.00939596	     15.88077282	     -7.50087018	     -2.00514049	      0.48097817	    -21.29723698	     32.31822879	     -4.13107358	      0.56405950	     32.52467288	     34.12530945	     -7.50087018	    -19.77752861	      2.87252753	     -6.59073723	     -5.71028604	     -6.93039031	    -26.13426963	     32.24615360	     90.00000001	      0.00000000	      0.00000000	     -1.65456541	     -9.33104661	    -21.89251789	     40.41712551	     90.00000001	      0.00000000	      0.00000000
      2.47000000	      6.39978416	      0.76308415	      1.83146025	      0.25818738	      0.88381345	      0.10035524	     30.79692365	     -6.74514519	    -13.74403017	     38.00588493	      1.34165653	      0.66332783	     12.82597361	     16.14106842	     -7.50085459	     -2.62338990	      0.34144246	    -21.08166263	     32.23893618	     -4.16839614	      0.56267558	     33.09131921	     34.12322531	     -7.50085459	    -19.69711465	      2.98738376	     -6.58139476	     -5.97389187	     -6.86334216	    -26.53978948	     32.10825426	     90.00000001	      0.00000000	      0.00000000	     -1.57382654	     -9.24985259	    -22.04891168	     40.29278287	     90.00000001	      0.00000000	      0.00000000
      2.48000000	      6.34976567	      0.66569089	      1.89061536	      0.26705525	      0.88225390	      0.10141131	     30.93276496	     -6.83870366	    -14.53022844	     38.05084780	      1.34417202	      0.66411258	     12.68863916	     16.16969103	     -7.50084534	     -3.23258288	      0.20642728	    -20.91796533	     32.20014646	     -4.29024360	      0.56199858	     33.49112168	     34.09919535	     -7.50084534	    -19.64021652	      3.07823107	     -6.53337681	     -6.20441183	     -6.84704980	    -26.81338852	     31.96944121	     90.00000001	      0.00000000	      0.00000000	     -1.50576516	     -9.13349817	    -22.15936463	     40.21436639	     90.00000001	      0.00000000	      0.00000000
      2.49000000	      6.34522791	      0.52720918	      1.96290520	      0.27614996	      0.88075300	      0.10245319	     30.96226959	     -6.88105314	    -15.40664330	     38.34069064	      1.21551238	      0.66917129	     12.41912507	     16.11641950	     -7.50083396	     -3.91799425	      0.03004152	    -20.75281789	     32.15589666	     -4.39323616	      0.56122627	     34.04087139	     34.01971547	     -7.50083396	    -19.58324474	      3.26740284	     -6.46849619	     -6.41031984	     -6.80786956	    -27.16260526	     31.79484607	     90.00000001	      0.00000000	      0.00000000	     -1.47703735	     -9.01992704	    -22.34908158	     40.08544206	     90.00000001	      0.00000000	      0.00000000
      2.50000000	      6.35512862	      0.35783780	      1.98729288	      0.28533161	      0.87928964	      0.10364177	     30.93265286	     -6.83670620	    -16.09827216	     38.82346643	      1.11057323	      0.67759732	     12.13990970	     15.91839973	     -7.50082371	     -4.59225485	     -0.16843911	    -20.61928093	     32.16583226	     -4.54771898	      0.56139968	     34.49621801	     33.88643475	     -7.50082371	    -19.53795260	      3.45710030	     -6.36999017	     -6.57141927	     -6.79374605	    -27.48016691	     31.60788283	     90.00000001	      0.00000000	      0.00000000	     -1.47620581	     -8.87386966	    -22.53934033	     39.97464286	     90.00000001	      0.00000000	      0.00000000
      2.51000000	      6.38742936	      0.15193941	      1.98875233	      0.29461446	      0.87791010	      0.10493539	     30.83144492	     -6.70181717	    -16.63915696	     39.45352199	      1.00305554	      0.68859386	     11.82440748	     15.57078008	     -7.50081440	     -5.26851935	     -0.39441863	    -20.49165002	     32.22089717	     -4.73124066	      0.56236074	     34.90565166	     33.68939728	     -7.50081440	    -19.50506035	      3.67871059	     -6.24926308	     -6.69157633	     -6.80497531	    -27.76444953	     31.40965761	     90.00000001	      0.00000000	      0.00000000	     -1.51202667	     -8.71056949	    -22.72962831	     39.87482028	     90.00000001	      0.00000000	      0.00000000
